<mxfile host="app.diagrams.net" modified="2024-04-04T21:40:42.913Z" agent="Mozilla/5.0 (Macintosh; Intel Mac OS X 10_15_7) AppleWebKit/605.1.15 (KHTML, like Gecko) Version/17.2 Safari/605.1.15" etag="VYcFaOSNe6W3Zl-DKFgO" version="24.2.2" type="github">
  <diagram name="Page-1" id="dNgki5Cz0MaYOk1kHmRT">
    <mxGraphModel dx="1399" dy="597" grid="1" gridSize="10" guides="1" tooltips="1" connect="1" arrows="1" fold="1" page="1" pageScale="1" pageWidth="827" pageHeight="1169" math="0" shadow="0">
      <root>
        <mxCell id="0" />
        <mxCell id="1" parent="0" />
        <mxCell id="gQAhfwbnGQIT-9oLSc2l-1" value="Start" style="whiteSpace=wrap;strokeWidth=2;" vertex="1" parent="1">
          <mxGeometry x="673" y="20" width="50" height="34" as="geometry" />
        </mxCell>
        <mxCell id="gQAhfwbnGQIT-9oLSc2l-2" value="Main Menu" style="whiteSpace=wrap;strokeWidth=2;" vertex="1" parent="1">
          <mxGeometry x="653" y="104" width="90" height="34" as="geometry" />
        </mxCell>
        <mxCell id="gQAhfwbnGQIT-9oLSc2l-3" value="Enter workout data" style="whiteSpace=wrap;strokeWidth=2;" vertex="1" parent="1">
          <mxGeometry x="47" y="187" width="154" height="34" as="geometry" />
        </mxCell>
        <mxCell id="gQAhfwbnGQIT-9oLSc2l-4" value="View workout logs" style="whiteSpace=wrap;strokeWidth=2;" vertex="1" parent="1">
          <mxGeometry x="251" y="187" width="146" height="34" as="geometry" />
        </mxCell>
        <mxCell id="gQAhfwbnGQIT-9oLSc2l-5" value="View progress" style="whiteSpace=wrap;strokeWidth=2;" vertex="1" parent="1">
          <mxGeometry x="646" y="187" width="114" height="34" as="geometry" />
        </mxCell>
        <mxCell id="gQAhfwbnGQIT-9oLSc2l-6" value="Exit" style="whiteSpace=wrap;strokeWidth=2;" vertex="1" parent="1">
          <mxGeometry x="826" y="187" width="43" height="34" as="geometry" />
        </mxCell>
        <mxCell id="gQAhfwbnGQIT-9oLSc2l-7" value="Validate workout data" style="rhombus;strokeWidth=2;whiteSpace=wrap;" vertex="1" parent="1">
          <mxGeometry x="20" y="289" width="208" height="208" as="geometry" />
        </mxCell>
        <mxCell id="gQAhfwbnGQIT-9oLSc2l-8" value="Update the workout log" style="whiteSpace=wrap;strokeWidth=2;" vertex="1" parent="1">
          <mxGeometry x="32" y="631" width="185" height="34" as="geometry" />
        </mxCell>
        <mxCell id="gQAhfwbnGQIT-9oLSc2l-9" value="Update the progress sheet" style="whiteSpace=wrap;strokeWidth=2;" vertex="1" parent="1">
          <mxGeometry x="520" y="780" width="204" height="34" as="geometry" />
        </mxCell>
        <mxCell id="gQAhfwbnGQIT-9oLSc2l-10" value="Display workout logs" style="rhombus;strokeWidth=2;whiteSpace=wrap;" vertex="1" parent="1">
          <mxGeometry x="357" y="296" width="195" height="195" as="geometry" />
        </mxCell>
        <mxCell id="gQAhfwbnGQIT-9oLSc2l-11" value="Calculate progress" style="whiteSpace=wrap;strokeWidth=2;" vertex="1" parent="1">
          <mxGeometry x="630" y="377" width="147" height="34" as="geometry" />
        </mxCell>
        <mxCell id="gQAhfwbnGQIT-9oLSc2l-12" value="Display progress" style="rhombus;strokeWidth=2;whiteSpace=wrap;" vertex="1" parent="1">
          <mxGeometry x="850" y="566" width="164" height="164" as="geometry" />
        </mxCell>
        <mxCell id="gQAhfwbnGQIT-9oLSc2l-13" value="End" style="whiteSpace=wrap;strokeWidth=2;" vertex="1" parent="1">
          <mxGeometry x="827" y="377" width="41" height="34" as="geometry" />
        </mxCell>
        <mxCell id="gQAhfwbnGQIT-9oLSc2l-14" value="" style="curved=1;startArrow=none;endArrow=block;exitX=0.495390625;exitY=0.9880514705882353;entryX=0.4974392361111111;entryY=-0.011948529411764705;rounded=0;" edge="1" parent="1" source="gQAhfwbnGQIT-9oLSc2l-1" target="gQAhfwbnGQIT-9oLSc2l-2">
          <mxGeometry relative="1" as="geometry">
            <Array as="points" />
          </mxGeometry>
        </mxCell>
        <mxCell id="gQAhfwbnGQIT-9oLSc2l-15" value="" style="curved=1;startArrow=none;endArrow=block;exitX=-0.005078125;exitY=0.5789963796071355;entryX=0.5007609577922078;entryY=0.0055147058823529415;rounded=0;" edge="1" parent="1" source="gQAhfwbnGQIT-9oLSc2l-2" target="gQAhfwbnGQIT-9oLSc2l-3">
          <mxGeometry relative="1" as="geometry">
            <Array as="points">
              <mxPoint x="124" y="162" />
            </Array>
          </mxGeometry>
        </mxCell>
        <mxCell id="gQAhfwbnGQIT-9oLSc2l-16" value="" style="curved=1;startArrow=none;endArrow=block;exitX=-0.005078125;exitY=0.6307269594813768;entryX=0.4982876712328767;entryY=0.0055147058823529415;rounded=0;" edge="1" parent="1" source="gQAhfwbnGQIT-9oLSc2l-2" target="gQAhfwbnGQIT-9oLSc2l-4">
          <mxGeometry relative="1" as="geometry">
            <Array as="points">
              <mxPoint x="324" y="162" />
            </Array>
          </mxGeometry>
        </mxCell>
        <mxCell id="gQAhfwbnGQIT-9oLSc2l-17" value="" style="curved=1;startArrow=none;endArrow=block;exitX=0.5208641614745589;exitY=0.9761029411764706;entryX=0.5001370614035088;entryY=0.0055147058823529415;rounded=0;" edge="1" parent="1" source="gQAhfwbnGQIT-9oLSc2l-2" target="gQAhfwbnGQIT-9oLSc2l-5">
          <mxGeometry relative="1" as="geometry">
            <Array as="points">
              <mxPoint x="703" y="162" />
            </Array>
          </mxGeometry>
        </mxCell>
        <mxCell id="gQAhfwbnGQIT-9oLSc2l-18" value="" style="curved=1;startArrow=none;endArrow=block;exitX=0.9999565972222222;exitY=0.8542710621453412;entryX=0.49182412790697677;entryY=0.0055147058823529415;rounded=0;" edge="1" parent="1" source="gQAhfwbnGQIT-9oLSc2l-2" target="gQAhfwbnGQIT-9oLSc2l-6">
          <mxGeometry relative="1" as="geometry">
            <Array as="points">
              <mxPoint x="847" y="162" />
            </Array>
          </mxGeometry>
        </mxCell>
        <mxCell id="gQAhfwbnGQIT-9oLSc2l-19" value="" style="curved=1;startArrow=none;endArrow=block;exitX=0.45398900900800265;exitY=0.9935661764705882;entryX=0.42132707140082487;entryY=0.0018028846153846155;rounded=0;" edge="1" parent="1" source="gQAhfwbnGQIT-9oLSc2l-3" target="gQAhfwbnGQIT-9oLSc2l-7">
          <mxGeometry relative="1" as="geometry">
            <Array as="points">
              <mxPoint x="102" y="255" />
            </Array>
          </mxGeometry>
        </mxCell>
        <mxCell id="gQAhfwbnGQIT-9oLSc2l-20" value="Invalid" style="curved=1;startArrow=none;endArrow=block;exitX=0.7823051319374644;exitY=0.0018028846153846155;entryX=0.6670686323424282;entryY=0.9935661764705882;rounded=0;" edge="1" parent="1" source="gQAhfwbnGQIT-9oLSc2l-7" target="gQAhfwbnGQIT-9oLSc2l-3">
          <mxGeometry relative="1" as="geometry">
            <Array as="points">
              <mxPoint x="202" y="255" />
            </Array>
          </mxGeometry>
        </mxCell>
        <mxCell id="gQAhfwbnGQIT-9oLSc2l-21" value="Valid" style="curved=1;startArrow=none;endArrow=block;exitX=0.5005634014423077;exitY=1.0029296875;entryX=0.49793074324324327;entryY=0.009650735294117647;rounded=0;" edge="1" parent="1" source="gQAhfwbnGQIT-9oLSc2l-7" target="gQAhfwbnGQIT-9oLSc2l-8">
          <mxGeometry relative="1" as="geometry">
            <Array as="points" />
          </mxGeometry>
        </mxCell>
        <mxCell id="gQAhfwbnGQIT-9oLSc2l-22" value="" style="curved=1;startArrow=none;endArrow=block;exitX=0.49793074324324327;exitY=0.9977022058823529;entryX=0.0001914828431372549;entryY=0.24394473002668265;rounded=0;" edge="1" parent="1" source="gQAhfwbnGQIT-9oLSc2l-8" target="gQAhfwbnGQIT-9oLSc2l-9">
          <mxGeometry relative="1" as="geometry">
            <Array as="points">
              <mxPoint x="124" y="755" />
            </Array>
          </mxGeometry>
        </mxCell>
        <mxCell id="gQAhfwbnGQIT-9oLSc2l-23" value="" style="curved=1;startArrow=none;endArrow=block;exitX=0.9983532475490197;exitY=0.24394473002668265;entryX=0.9999565972222222;entryY=0.613883153535758;rounded=0;" edge="1" parent="1" source="gQAhfwbnGQIT-9oLSc2l-9" target="gQAhfwbnGQIT-9oLSc2l-2">
          <mxGeometry relative="1" as="geometry">
            <Array as="points">
              <mxPoint x="1120" y="755" />
              <mxPoint x="1120" y="162" />
            </Array>
          </mxGeometry>
        </mxCell>
        <mxCell id="gQAhfwbnGQIT-9oLSc2l-24" value="" style="curved=1;startArrow=none;endArrow=block;exitX=0.4982876712328767;exitY=0.9935661764705882;entryX=0.026573280922784413;entryY=-0.0007612179487179487;rounded=0;" edge="1" parent="1" source="gQAhfwbnGQIT-9oLSc2l-4" target="gQAhfwbnGQIT-9oLSc2l-10">
          <mxGeometry relative="1" as="geometry">
            <Array as="points">
              <mxPoint x="324" y="255" />
            </Array>
          </mxGeometry>
        </mxCell>
        <mxCell id="gQAhfwbnGQIT-9oLSc2l-25" value="Logs available" style="curved=1;startArrow=none;endArrow=block;exitX=0.5985434063130008;exitY=-0.0007612179487179487;entryX=-0.005078125;entryY=0.7395820501526645;rounded=0;" edge="1" parent="1" source="gQAhfwbnGQIT-9oLSc2l-10" target="gQAhfwbnGQIT-9oLSc2l-2">
          <mxGeometry relative="1" as="geometry">
            <Array as="points">
              <mxPoint x="482" y="255" />
              <mxPoint x="482" y="162" />
            </Array>
          </mxGeometry>
        </mxCell>
        <mxCell id="gQAhfwbnGQIT-9oLSc2l-26" value="No logs" style="curved=1;startArrow=none;endArrow=block;exitX=0.9593667382063149;exitY=-0.0007612179487179487;entryX=-0.005078125;entryY=0.9606765285681509;rounded=0;" edge="1" parent="1" source="gQAhfwbnGQIT-9oLSc2l-10" target="gQAhfwbnGQIT-9oLSc2l-2">
          <mxGeometry relative="1" as="geometry">
            <Array as="points">
              <mxPoint x="582" y="255" />
              <mxPoint x="582" y="162" />
            </Array>
          </mxGeometry>
        </mxCell>
        <mxCell id="gQAhfwbnGQIT-9oLSc2l-27" value="" style="curved=1;startArrow=none;endArrow=block;exitX=0.5001370614035088;exitY=0.9935661764705882;entryX=0.49670493197278914;entryY=-0.008961397058823529;rounded=0;" edge="1" parent="1" source="gQAhfwbnGQIT-9oLSc2l-5" target="gQAhfwbnGQIT-9oLSc2l-11">
          <mxGeometry relative="1" as="geometry">
            <Array as="points" />
          </mxGeometry>
        </mxCell>
        <mxCell id="gQAhfwbnGQIT-9oLSc2l-28" value="" style="curved=1;startArrow=none;endArrow=block;exitX=0.49670493197278914;exitY=0.9790900735294118;entryX=-0.0011432926829268292;entryY=0.2469394908299148;rounded=0;" edge="1" parent="1" source="gQAhfwbnGQIT-9oLSc2l-11" target="gQAhfwbnGQIT-9oLSc2l-12">
          <mxGeometry relative="1" as="geometry">
            <Array as="points">
              <mxPoint x="703" y="532" />
            </Array>
          </mxGeometry>
        </mxCell>
        <mxCell id="gQAhfwbnGQIT-9oLSc2l-29" value="Progress available" style="curved=1;startArrow=none;endArrow=block;exitX=0.49838033536585363;exitY=0.0012385670731707317;entryX=0.9999565972222222;entryY=0.719710818994515;rounded=0;" edge="1" parent="1" source="gQAhfwbnGQIT-9oLSc2l-12" target="gQAhfwbnGQIT-9oLSc2l-2">
          <mxGeometry relative="1" as="geometry">
            <Array as="points">
              <mxPoint x="932" y="162" />
            </Array>
          </mxGeometry>
        </mxCell>
        <mxCell id="gQAhfwbnGQIT-9oLSc2l-30" value="No progress" style="curved=1;startArrow=none;endArrow=block;exitX=0.9979039634146342;exitY=0.04081459108297736;entryX=0.9999565972222222;entryY=0.6364371271177572;rounded=0;" edge="1" parent="1" source="gQAhfwbnGQIT-9oLSc2l-12" target="gQAhfwbnGQIT-9oLSc2l-2">
          <mxGeometry relative="1" as="geometry">
            <Array as="points">
              <mxPoint x="1058" y="532" />
              <mxPoint x="1058" y="162" />
            </Array>
          </mxGeometry>
        </mxCell>
        <mxCell id="gQAhfwbnGQIT-9oLSc2l-31" value="" style="curved=1;startArrow=none;endArrow=block;exitX=0.49182412790697677;exitY=0.9935661764705882;entryX=0.4914253048780488;entryY=-0.008961397058823529;rounded=0;" edge="1" parent="1" source="gQAhfwbnGQIT-9oLSc2l-6" target="gQAhfwbnGQIT-9oLSc2l-13">
          <mxGeometry relative="1" as="geometry">
            <Array as="points" />
          </mxGeometry>
        </mxCell>
      </root>
    </mxGraphModel>
  </diagram>
</mxfile>
